<mxfile host="app.diagrams.net" modified="2024-06-09T12:52:18.158Z" agent="Mozilla/5.0 (Windows NT 10.0; Win64; x64) AppleWebKit/537.36 (KHTML, like Gecko) Chrome/125.0.0.0 Safari/537.36" etag="LUetdKLrpGuClorFyXdr" version="24.5.2" type="github">
  <diagram name="PÃ¡gina-1" id="Z1KwaNPyy6gBbevRYTJm">
    <mxGraphModel dx="1114" dy="638" grid="1" gridSize="10" guides="1" tooltips="1" connect="1" arrows="1" fold="1" page="1" pageScale="1" pageWidth="1169" pageHeight="827" math="0" shadow="0">
      <root>
        <mxCell id="0" />
        <mxCell id="1" parent="0" />
        <mxCell id="J6i-Hf9DABYKp_gOB9Wn-1" value="Jogador" style="shape=umlActor;verticalLabelPosition=bottom;verticalAlign=top;html=1;outlineConnect=0;" vertex="1" parent="1">
          <mxGeometry x="240" y="240" width="40" height="80" as="geometry" />
        </mxCell>
        <mxCell id="J6i-Hf9DABYKp_gOB9Wn-2" value="" style="rounded=0;whiteSpace=wrap;html=1;" vertex="1" parent="1">
          <mxGeometry x="360" y="40" width="400" height="520" as="geometry" />
        </mxCell>
        <mxCell id="J6i-Hf9DABYKp_gOB9Wn-3" value="Criar&amp;nbsp;&lt;div&gt;Conta&lt;/div&gt;" style="ellipse;whiteSpace=wrap;html=1;" vertex="1" parent="1">
          <mxGeometry x="400" y="50" width="140" height="70" as="geometry" />
        </mxCell>
        <mxCell id="J6i-Hf9DABYKp_gOB9Wn-4" value="Fazer&lt;div&gt;Check-In&lt;/div&gt;" style="ellipse;whiteSpace=wrap;html=1;" vertex="1" parent="1">
          <mxGeometry x="400" y="310" width="140" height="70" as="geometry" />
        </mxCell>
        <mxCell id="J6i-Hf9DABYKp_gOB9Wn-5" value="Atualizar&lt;div&gt;Saldo de&lt;/div&gt;&lt;div&gt;Moedas&lt;/div&gt;" style="ellipse;whiteSpace=wrap;html=1;" vertex="1" parent="1">
          <mxGeometry x="400" y="480" width="140" height="70" as="geometry" />
        </mxCell>
        <mxCell id="J6i-Hf9DABYKp_gOB9Wn-6" value="Excluir&lt;div&gt;Conta&lt;/div&gt;" style="ellipse;whiteSpace=wrap;html=1;" vertex="1" parent="1">
          <mxGeometry x="400" y="130" width="140" height="70" as="geometry" />
        </mxCell>
        <mxCell id="J6i-Hf9DABYKp_gOB9Wn-7" value="Atualizar&lt;div&gt;Dados&lt;/div&gt;" style="ellipse;whiteSpace=wrap;html=1;" vertex="1" parent="1">
          <mxGeometry x="400" y="220" width="140" height="70" as="geometry" />
        </mxCell>
        <mxCell id="J6i-Hf9DABYKp_gOB9Wn-9" value="Administrador" style="shape=umlActor;verticalLabelPosition=bottom;verticalAlign=top;html=1;outlineConnect=0;" vertex="1" parent="1">
          <mxGeometry x="840" y="240" width="40" height="80" as="geometry" />
        </mxCell>
        <mxCell id="J6i-Hf9DABYKp_gOB9Wn-18" value="" style="endArrow=classic;html=1;rounded=0;exitX=0.5;exitY=0.5;exitDx=0;exitDy=0;exitPerimeter=0;entryX=0;entryY=0.5;entryDx=0;entryDy=0;" edge="1" parent="1" source="J6i-Hf9DABYKp_gOB9Wn-1" target="J6i-Hf9DABYKp_gOB9Wn-3">
          <mxGeometry width="50" height="50" relative="1" as="geometry">
            <mxPoint x="290" y="320" as="sourcePoint" />
            <mxPoint x="340" y="270" as="targetPoint" />
          </mxGeometry>
        </mxCell>
        <mxCell id="J6i-Hf9DABYKp_gOB9Wn-20" value="" style="endArrow=classic;html=1;rounded=0;exitX=0.5;exitY=0.5;exitDx=0;exitDy=0;exitPerimeter=0;" edge="1" parent="1" source="J6i-Hf9DABYKp_gOB9Wn-1" target="J6i-Hf9DABYKp_gOB9Wn-4">
          <mxGeometry width="50" height="50" relative="1" as="geometry">
            <mxPoint x="270" y="290" as="sourcePoint" />
            <mxPoint x="390" y="145" as="targetPoint" />
          </mxGeometry>
        </mxCell>
        <mxCell id="J6i-Hf9DABYKp_gOB9Wn-21" value="" style="endArrow=classic;html=1;rounded=0;exitX=0.5;exitY=0.5;exitDx=0;exitDy=0;exitPerimeter=0;entryX=0;entryY=0.5;entryDx=0;entryDy=0;" edge="1" parent="1" source="J6i-Hf9DABYKp_gOB9Wn-1" target="J6i-Hf9DABYKp_gOB9Wn-6">
          <mxGeometry width="50" height="50" relative="1" as="geometry">
            <mxPoint x="270" y="290" as="sourcePoint" />
            <mxPoint x="390" y="290" as="targetPoint" />
          </mxGeometry>
        </mxCell>
        <mxCell id="J6i-Hf9DABYKp_gOB9Wn-22" value="" style="endArrow=classic;html=1;rounded=0;exitX=0.5;exitY=0.5;exitDx=0;exitDy=0;exitPerimeter=0;entryX=0;entryY=0.5;entryDx=0;entryDy=0;" edge="1" parent="1" source="J6i-Hf9DABYKp_gOB9Wn-1" target="J6i-Hf9DABYKp_gOB9Wn-7">
          <mxGeometry width="50" height="50" relative="1" as="geometry">
            <mxPoint x="270" y="290" as="sourcePoint" />
            <mxPoint x="610" y="215" as="targetPoint" />
          </mxGeometry>
        </mxCell>
        <mxCell id="J6i-Hf9DABYKp_gOB9Wn-23" value="&amp;lt;&amp;lt; Include &amp;gt;&amp;gt;" style="endArrow=open;endSize=12;dashed=1;html=1;rounded=0;exitX=0.5;exitY=1;exitDx=0;exitDy=0;entryX=0.5;entryY=0;entryDx=0;entryDy=0;" edge="1" parent="1" source="J6i-Hf9DABYKp_gOB9Wn-4" target="J6i-Hf9DABYKp_gOB9Wn-5">
          <mxGeometry width="160" relative="1" as="geometry">
            <mxPoint x="540" y="440" as="sourcePoint" />
            <mxPoint x="700" y="440" as="targetPoint" />
          </mxGeometry>
        </mxCell>
        <mxCell id="J6i-Hf9DABYKp_gOB9Wn-25" value="" style="endArrow=classic;html=1;rounded=0;exitX=0.5;exitY=0.5;exitDx=0;exitDy=0;exitPerimeter=0;entryX=1;entryY=0.5;entryDx=0;entryDy=0;" edge="1" parent="1" source="J6i-Hf9DABYKp_gOB9Wn-9" target="J6i-Hf9DABYKp_gOB9Wn-3">
          <mxGeometry width="50" height="50" relative="1" as="geometry">
            <mxPoint x="810" y="190" as="sourcePoint" />
            <mxPoint x="860" y="140" as="targetPoint" />
          </mxGeometry>
        </mxCell>
        <mxCell id="J6i-Hf9DABYKp_gOB9Wn-26" value="" style="endArrow=classic;html=1;rounded=0;entryX=1;entryY=0.5;entryDx=0;entryDy=0;" edge="1" parent="1" target="J6i-Hf9DABYKp_gOB9Wn-6">
          <mxGeometry width="50" height="50" relative="1" as="geometry">
            <mxPoint x="860" y="280" as="sourcePoint" />
            <mxPoint x="550" y="95" as="targetPoint" />
          </mxGeometry>
        </mxCell>
        <mxCell id="J6i-Hf9DABYKp_gOB9Wn-27" value="" style="endArrow=classic;html=1;rounded=0;entryX=1;entryY=0.5;entryDx=0;entryDy=0;" edge="1" parent="1" target="J6i-Hf9DABYKp_gOB9Wn-7">
          <mxGeometry width="50" height="50" relative="1" as="geometry">
            <mxPoint x="860" y="280" as="sourcePoint" />
            <mxPoint x="550" y="175" as="targetPoint" />
          </mxGeometry>
        </mxCell>
      </root>
    </mxGraphModel>
  </diagram>
</mxfile>
